<svg xmlns="http://www.w3.org/2000/svg" viewBox="0 0 64 64">
  <defs>
    <linearGradient id="bg" x1="0" y1="0" x2="1" y2="1">
      <stop offset="0%" stop-color="#611f69"/>
      <stop offset="100%" stop-color="#2d1068"/>
    </linearGradient>
  </defs>
  <rect width="64" height="64" rx="14" fill="url(#bg)"/>
  <path fill="#fff" d="M17 22.5c0-3 2.4-5.5 5.4-5.5h6.3v6.3h-6.3a1.8 1.8 0 0 0 0 3.5h9.7c3.7 0 6.7 3 6.7 6.7s-3 6.6-6.7 6.6h-6.2v-6.2h6.2a1.8 1.8 0 0 0 0-3.6h-9.7A5.5 5.5 0 0 1 17 22.5zm29.6 19.5h-6.3v-6.3h6.3a1.8 1.8 0 0 0 0-3.5h-9.7c-3.7 0-6.7-3-6.7-6.7s3-6.6 6.7-6.6h6.2v6.2H37a1.8 1.8 0 0 0 0 3.6h9.6c3 0 5.4 2.4 5.4 5.4s-2.4 5.9-5.4 5.9z"/>
</svg>
